nColumns=19
nRows=46
DataType=double
version=3
OpenSimVersion=4.1
endheader
time	ground_force_calcn_r_vx	ground_force_calcn_r_vy	ground_force_calcn_r_vz	ground_force_calcn_r_px	ground_force_calcn_r_py	ground_force_calcn_r_pz	ground_force_calcn_r_mx	ground_force_calcn_r_my	ground_force_calcn_r_mz	ground_force_calcn_l_vx	ground_force_calcn_l_vy	ground_force_calcn_l_vz	ground_force_calcn_l_px	ground_force_calcn_l_py	ground_force_calcn_l_pz	ground_force_calcn_l_mx	ground_force_calcn_l_my	ground_force_calcn_l_mz
4.11	0	0	0	0	0	0	0	0	0	0	0	0	0	0	0	0	0	0
4.12	0	0	0	0	0	0	0	0	0	0	0	0	0	0	0	0	0	0
4.13	0	0	0	0	0	0	0	0	0	0	0	0	0	0	0	0	0	0
4.14	0	0	0	0	0	0	0	0	0	0	0	0	0	0	0	0	0	0
4.15	0	0	0	0	0	0	0	0	0	0	0	0	0	0	0	0	0	0
4.16	0	0	0	0	0	0	0	0	0	0.754611	13.5624	-0.406607	-0.00277499	0	-0.000665784	-3.9684e-20	-7.13227e-19	2.13829e-20
4.17	0	0	0	0	0	0	0	0	0	0.56064	36.0502	-5.08117	1.07537	0	-0.319926	0.0200559	1.28963	-0.18177
4.18	0	0	0	0	0	0	0	0	0	3.79296	127.777	-13.6274	0.988715	0	-0.349243	0.0259132	0.87296	-0.0931013
4.19	0	0	0	0	0	0	0	0	0	3.24106	386.173	-24.5351	1.01223	0	-0.331717	0.00648548	0.772746	-0.0490956
4.2	0	0	0	0	0	0	0	0	0	-36.2008	819.493	-27.9873	1.01185	0	-0.326335	0.0064697	-0.146457	0.00500181
4.21	0	0	0	0	0	0	0	0	0	-123.706	1204.44	-16.9517	1.00707	0	-0.323077	0.224403	-2.18486	0.0307505
4.22	0	0	0	0	0	0	0	0	0	-195.592	1314.97	-27.3587	0.997466	0	-0.321184	0.6398	-4.30139	0.0894928
4.23	0	0	0	0	0	0	0	0	0	-216.535	1245.73	-85.4199	0.979492	0	-0.320749	0.892381	-5.1339	0.352032
4.24	0	0	0	0	0	0	0	0	0	-214.419	1200.01	-103.831	0.949773	0	-0.321588	0.802894	-4.49346	0.388795
4.25	0	0	0	0	0	0	0	0	0	-198.753	1238.03	-28.1337	0.910477	0	-0.322788	0.5681	-3.53867	0.080415
4.26	0	0	0	0	0	0	0	0	0	-160.036	1319.64	28.3139	0.870798	0	-0.323805	0.406897	-3.35523	-0.071989
4.27	0	0	0	0	0	0	0	0	0	-105.895	1388.67	1.56043	0.837623	0	-0.324841	0.298206	-3.91059	-0.00439429
4.28	0	0	0	0	0	0	0	0	0	-62.2916	1416.54	-26.2818	0.810239	0	-0.325972	0.186943	-4.25116	0.0788742
4.29	0	0	0	0	0	0	0	0	0	-31.6847	1406.47	-10.8831	0.784939	0	-0.327116	0.0859899	-3.81704	0.0295358
4.3	0	0	0	0	0	0	0	0	0	-1.40959	1366.55	3.31767	0.758675	0	-0.328215	0.00307118	-2.9774	-0.00722847
4.31	0	0	0	0	0	0	0	0	0	31.5452	1301.21	1.09109	0.730248	0	-0.328969	-0.0624713	-2.57687	-0.00216076
4.32	0	0	0	0	0	0	0	0	0	66.6561	1217.55	-3.57491	0.699833	0	-0.328892	-0.170682	-3.1177	0.00915403
4.33	0	0	0	0	0	0	0	0	0	105.691	1112.84	-13.5233	0.667774	0	-0.3278	-0.398236	-4.19309	0.0509548
4.34	0	0	0	0	0	0	0	0	0	139.473	973.239	-26.4003	0.633448	0	-0.325991	-0.653303	-4.55874	0.123662
4.35	0	0	0	0	0	0	0	0	0	155.819	786.389	-33.6031	0.59468	0	-0.323889	-0.600946	-3.03286	0.129597
4.36	0	0	0	0	0	0	0	0	0	150.036	561.099	-37.9601	0.547647	0	-0.321521	0.0661482	0.247378	-0.0167359
4.37	0	0	0	0	0	0	0	0	0	125.765	345.099	-41.6767	0.486783	0	-0.317649	1.23203	3.38069	-0.408278
4.38	0	0	0	0	0	0	0	0	0	92.2729	186.093	-32.4341	0.396896	0	-0.309386	2.10935	4.25408	-0.741441
4.39	0	0	0	0	0	0	0	0	0	55.8693	91.7331	-10.1651	0.174957	0	-0.289107	1.89201	3.10654	-0.344241
4.4	0	0	0	0	0	0	0	0	0	21.705	43.9762	0.277766	2.61434	0	-0.585161	0.85694	1.73623	0.0109665
4.41	0	0	0	0	0	0	0	0	0	1.68598	18.9009	-3.33285	-0.00277485	0	-0.000664136	1.17272e-19	1.31469e-18	-2.31823e-19
4.42	0	0	0	0	0	0	0	0	0	0	0	0	0	0	0	0	0	0
4.43	0	0	0	0	0	0	0	0	0	0	0	0	0	0	0	0	0	0
4.44	0	0	0	0	0	0	0	0	0	0	0	0	0	0	0	0	0	0
4.45	0	0	0	0	0	0	0	0	0	0	0	0	0	0	0	0	0	0
4.46	0	0	0	0	0	0	0	0	0	0	0	0	0	0	0	0	0	0
4.47	-1.88976	11.6821	0.114913	-0.00277467	0	-0.000664186	5.70266e-20	-3.52525e-19	-3.46767e-21	0	0	0	0	0	0	0	0	0
4.48	-0.0204266	28.4429	-2.68438	-0.00277466	0	-0.000664124	-0	0	-0	0	0	0	0	0	0	0	0	0
4.49	8.70011	112.43	-9.95512	0.992262	0	-0.291935	0.0987415	1.27602	-0.112985	0	0	0	0	0	0	0	0	0
4.5	21.1143	369.094	-20.2831	1.00992	0	-0.296184	-0.0327001	-0.571623	0.0314128	0	0	0	0	0	0	0	0	0
4.51	3.27301	836.189	-9.19993	1.01031	0	-0.29679	0.00709951	1.81378	-0.0199556	0	0	0	0	0	0	0	0	0
4.52	-72.9569	1267.29	63.773	1.00839	0	-0.298006	-0.35848	6.22692	0.313354	0	0	0	0	0	0	0	0	0
4.53	-159.908	1370.5	145.195	1.00362	0	-0.299752	-0.966315	8.28187	0.877404	0	0	0	0	0	0	0	0	0
4.54	-212.009	1269.81	102.236	0.992367	0	-0.301333	-1.10233	6.60233	0.531572	0	0	0	0	0	0	0	0	0
4.55	-224.927	1220.41	-24.1198	0.967908	0	-0.301346	-0.626189	3.39757	-0.0671487	0	0	0	0	0	0	0	0	0
4.56	-203.918	1285.12	-67.2702	0.929563	0	-0.299318	-0.251157	1.58282	-0.0828539	0	0	0	0	0	0	0	0	0
